<?xml version="1.0" standalone="no"?>
<!DOCTYPE svg PUBLIC "-//W3C//DTD SVG 20010904//EN"
 "http://www.w3.org/TR/2001/REC-SVG-20010904/DTD/svg10.dtd">
<svg version="1.0" xmlns="http://www.w3.org/2000/svg"
 width="24.000000pt" height="24.000000pt" viewBox="0 0 24.000000 24.000000"
 preserveAspectRatio="xMidYMid meet">

<g transform="translate(0.000000,24.000000) scale(0.100000,-0.100000)"
 stroke="none">
<path d="M70 190 c-8 -5 -27 -10 -42 -10 -26 0 -28 -3 -28 -40 0 -38 1 -39 28
-35 23 5 32 -2 61 -39 35 -45 35 -45 53 -24 10 12 18 18 18 14 0 -4 7 0 16 8
14 15 13 19 -6 46 -19 27 -25 29 -61 24 -33 -6 -39 -4 -39 11 0 9 10 25 23 36
16 13 18 18 7 19 -8 0 -22 -5 -30 -10z"/>
<path d="M113 179 c-48 -31 -41 -54 9 -28 17 9 25 6 52 -20 45 -44 66 -41 66
8 0 34 -3 38 -19 34 -11 -3 -30 2 -43 11 -28 20 -26 20 -65 -5z"/>
<path d="M25 91 c-9 -15 55 -75 67 -63 7 7 1 20 -18 41 -29 33 -39 37 -49 22z"/>
</g>
</svg>
