<?xml version="1.0" standalone="no"?>
<!DOCTYPE svg PUBLIC "-//W3C//DTD SVG 20010904//EN"
 "http://www.w3.org/TR/2001/REC-SVG-20010904/DTD/svg10.dtd">
<svg version="1.0" xmlns="http://www.w3.org/2000/svg"
 width="50.000000pt" height="50.000000pt" viewBox="0 0 50.000000 50.000000"
 preserveAspectRatio="xMidYMid meet">

<g transform="translate(0.000000,50.000000) scale(0.100000,-0.100000)" stroke="none">
<path d="M215 436 c-60 -18 -117 -35 -125 -38 -8 -4 54 -7 138 -7 l152 -1 0
28 c0 31 -16 52 -39 51 -9 0 -65 -15 -126 -33z"/>
<path d="M60 350 c-18 -18 -20 -33 -20 -149 0 -169 -11 -161 212 -161 217 0
208 -7 208 165 0 173 10 165 -210 165 -157 0 -172 -2 -190 -20z m348 -143 c4
-20 -25 -34 -40 -19 -15 15 -1 44 19 40 10 -2 19 -11 21 -21z"/>
</g>
</svg>
