<?xml version="1.0" encoding="iso-8859-1"?>
<!-- Generator: Adobe Illustrator 16.0.0, SVG Export Plug-In . SVG Version: 6.00 Build 0)  -->
<!DOCTYPE svg PUBLIC "-//W3C//DTD SVG 1.1//EN" "http://www.w3.org/Graphics/SVG/1.1/DTD/svg11.dtd">
<svg version="1.1" id="Capa_1" xmlns="http://www.w3.org/2000/svg" xmlns:xlink="http://www.w3.org/1999/xlink" x="0px" y="0px"
	 width="60.888px" height="60.888px" viewBox="0 0 60.888 60.888" style="enable-background:new 0 0 60.888 60.888;"
	 xml:space="preserve">
<g>
	<g>
		<path d="M0,15.396v3.277h57.593v-3.277c0-1.643-1.309-2.974-2.924-2.974H2.923C1.31,12.421,0,13.753,0,15.396z"/>
		<path d="M36.007,42.258v-6.259c0-1.15,0.932-2.083,2.083-2.083h19.503v-7.39H0v18.965c0,1.642,1.309,2.975,2.923,2.975h51.746
			c1.614,0,2.924-1.333,2.924-2.975v-1.149H38.09C36.938,44.342,36.007,43.41,36.007,42.258z"/>
		<polygon points="38.09,36 38.09,42.258 57.593,42.258 60.888,42.258 60.888,36 57.593,36 		"/>
	</g>
</g>
<g>
</g>
<g>
</g>
<g>
</g>
<g>
</g>
<g>
</g>
<g>
</g>
<g>
</g>
<g>
</g>
<g>
</g>
<g>
</g>
<g>
</g>
<g>
</g>
<g>
</g>
<g>
</g>
<g>
</g>
</svg>
